 http://www.blu-ray.com/news/?id=6918

Format                           : Matroska
Format version                   : Version 2
File size                        : 13.6 GiB
Duration                         : 6h 0mn
Overall bit rate                 : 5 383 Kbps
Encoded date                     : UTC 2012-01-05 04:22:08
Writing application              : mkvmerge v5.2.1 ('A Far Off Place') built on Jan  2 2012 23:21:10
Writing library                  : libebml v1.2.3 + libmatroska v1.3.0

Video
ID                               : 1
Format                           : AVC
Format/Info                      : Advanced Video Codec
Format profile                   : High@L4.1
Format settings, CABAC           : Yes
Format settings, ReFrames        : 6 frames
Muxing mode                      : Header stripping
Codec ID                         : V_MPEG4/ISO/AVC
Duration                         : 6h 0mn
Bit rate                         : 5 000 Kbps
Width                            : 960 pixels
Height                           : 720 pixels
Display aspect ratio             : 4:3
Frame rate                       : 23.976 fps
Color space                      : YUV
Chroma subsampling               : 4:2:0
Bit depth                        : 8 bits
Scan type                        : Progressive
Bits/(Pixel*Frame)               : 0.302
Stream size                      : 12.3 GiB (91%)
Writing library                  : x264 core 120 r2120 0c7dab9
Encoding settings                : cabac=1 / ref=7 / deblock=1:-2:-2 / analyse=0x3:0x113 / me=umh / subme=11 / psy=1 / psy_rd=1.00:0.00 / mixed_ref=1 / me_range=64 / chroma_me=1 / trellis=2 / 8x8dct=1 / cqm=0 / deadzone=21,11 / fast_pskip=0 / chroma_qp_offset=-2 / threads=6 / sliced_threads=0 / nr=0 / decimate=1 / interlaced=0 / bluray_compat=0 / constrained_intra=0 / bframes=10 / b_pyramid=1 / b_adapt=2 / b_bias=0 / direct=3 / weightb=1 / open_gop=0 / weightp=2 / keyint=250 / keyint_min=23 / scenecut=40 / intra_refresh=0 / rc_lookahead=64 / rc=2pass / mbtree=1 / bitrate=5000 / ratetol=1.0 / qcomp=0.60 / qpmin=10 / qpmax=51 / qpstep=4 / cplxblur=20.0 / qblur=0.5 / ip_ratio=1.40 / aq=1:1.00
Language                         : English
Default                          : Yes
Forced                           : No

Audio #1
ID                               : 2
Format                           : AC-3
Format/Info                      : Audio Coding 3
Mode extension                   : CM (complete main)
Muxing mode                      : Header stripping
Codec ID                         : A_AC3
Duration                         : 6h 0mn
Bit rate mode                    : Constant
Bit rate                         : 192 Kbps
Channel(s)                       : 1 channel
Channel positions                : Front: C
Sampling rate                    : 48.0 KHz
Bit depth                        : 16 bits
Compression mode                 : Lossy
Stream size                      : 496 MiB (4%)
Default                          : Yes
Forced                           : No

Audio #2
ID                               : 3
Format                           : AC-3
Format/Info                      : Audio Coding 3
Mode extension                   : CM (complete main)
Muxing mode                      : Header stripping
Codec ID                         : A_AC3
Duration                         : 6h 0mn
Bit rate mode                    : Constant
Bit rate                         : 192 Kbps
Channel(s)                       : 1 channel
Channel positions                : Front: C
Sampling rate                    : 48.0 KHz
Bit depth                        : 16 bits
Compression mode                 : Lossy
Stream size                      : 496 MiB (4%)
Title                            : Audio Commentary
Default                          : No
Forced                           : No

Menu
00:00:00.000                     : :I Love To Singa (1936)
00:08:15.552                     : :Katnip Kollege (1938)
00:15:42.048                     : :Old Glory (1939)
00:24:47.648                     : :The Dover Boys at Pimento University (1942)
00:33:46.240                     : :A Tale Of Two Kitties (1942)
00:40:26.688                     : :The Old Grey Hare (1944)
00:48:05.408                     : :Hare Tonic (1945)
00:56:25.632                     : :Baseball Bugs (1946)
01:04:02.464                     : :Baby Bottleneck (1946)
01:11:06.624                     : :Kitty Kornered (1946)
01:18:15.104                     : :The Great Piggy Bank Robbery (1946)
01:25:52.032                     : :Tweetie Pie (1947)
01:32:56.512                     : :A Pest In The House (1947)
01:40:48.256                     : :Buccaneer Bunny (1948)
01:48:18.560                     : :Haredevil Hare (1948)
01:56:03.072                     : :Scaredy Cat (1948)
02:03:28.576                     : :Porky Chops (1949)
02:10:28.064                     : :Fast And Furry-ous (1949)
02:17:36.640                     : :For Scent-imental Reasons (1949)
02:24:33.920                     : :Rabbit Hood (1949)
02:32:31.072                     : :The Scarlet Pumpernickel (1950)
02:39:37.568                     : :8 Ball Bunny (1950)
02:46:47.424                     : :Rabbit Of Seville (1950)
02:54:18.944                     : :Chow Hound (1951)
03:01:15.808                     : :Lovelorn Leghorn (1951)
03:08:36.320                     : :Feed The Kitty (1952)
03:15:59.808                     : :Beep, Beep (1952)
03:22:49.280                     : :The Hasty Hare (1952)
03:30:23.776                     : :Kiss Me Kat (1953)
03:37:32.256                     : :Duck Amuck (1953)
03:44:32.032                     : :Duck Dodgers In The 24th Century (1953)
03:51:37.504                     : :Feline Frame-up (1954)
03:58:07.936                     : :Devil May Hare (1954)
04:05:03.424                     : :Bewitched Bunny (1954)
04:12:03.904                     : :From A To Z-Z-Z-Z (1954)
04:19:13.504                     : :Speedy Gonzales (1955)
04:25:58.048                     : :One Froggy Evening (1955)
04:32:51.520                     : :Broom-stick Bunny (1956)
04:40:02.176                     : :Three Little Bops (1957)
04:46:46.624                     : :Bedevilled Rabbit (1957)
04:53:36.512                     : :Boyhood Daze (1957)
05:01:01.024                     : :What's Opera, Doc? (1957)
05:07:56.032                     : :Ducking The Devil (1957)
05:14:36.192                     : :Robin Hood Daffy (1958)
05:21:15.872                     : :Hare-way To The Stars (1958)
05:28:16.352                     : :A Witch's Tangled Hare (1959)
05:34:40.800                     : :Bill Of Hare (1962)
05:41:09.248                     : :Mad As A Mars Hare (1963)
05:47:56.864                     : :Dr. Devil And Mr. Hare (1964)
05:54:33.280                     : :A-haunting We Will Go (1966)

Select Audio#2 for Commentary...